# Blender 4.0.1
# www.blender.org
mtllib indexMiddle.mtl
o 16834_hand_v1_NEW.004
v 0.780672 0.124774 -0.501415
v -0.052610 0.345679 -0.779844
v 0.846962 -1.966465 -0.770255
v -0.923696 0.209649 0.116261
v 0.152255 -1.612622 -1.416721
v -0.214613 -0.085579 0.807017
v 0.632796 -0.216620 0.628705
v 0.685485 -1.831435 0.118413
v 0.821401 -2.065406 -0.786718
v -1.153449 -2.035397 -1.094910
v -0.192506 -2.223125 0.328910
v 0.075716 -2.002831 -1.514680
v -1.162163 -2.037175 -1.076579
v 0.664247 -2.050933 -0.951340
v -0.877711 -2.033184 -1.193882
v -0.127911 -2.221710 0.317851
v 0.693206 -2.181466 0.008349
v -0.232272 -2.217343 0.285260
v -1.131406 -2.034786 -1.106674
v 0.816442 -2.096971 -0.632976
v 0.877285 -0.086461 -0.051187
v -0.788689 0.319418 -0.438913
vn 0.0023 -0.9962 -0.0875
vn 0.0086 -0.9918 -0.1272
vn -0.0321 -0.9932 -0.1116
vn -0.0314 -0.9934 -0.1100
vn 0.1158 -0.9737 -0.1962
vn -0.0320 -0.9932 -0.1116
vn -0.0007 -0.9914 -0.1308
vn -0.0007 -0.9914 -0.1307
vn -0.0083 -0.9902 -0.1392
vn 0.9417 0.0406 -0.3339
vn 0.2808 0.2593 -0.9241
vn 0.3106 0.6002 -0.7371
vn -0.3087 0.2685 -0.9125
vn -0.3986 0.2911 -0.8697
vn -0.1848 0.4299 0.8837
vn -0.7462 0.1707 0.6434
vn -0.7650 -0.1744 0.6200
vn -0.3188 -0.2104 0.9242
vn -0.9954 0.0710 -0.0649
vn 0.6957 -0.0323 0.7176
vn 0.7657 -0.1723 0.6197
vn 0.7936 -0.1610 0.5867
vn 0.9868 -0.0687 0.1465
vn 0.8050 0.2463 -0.5398
vn 0.6964 0.0309 -0.7170
vn 0.1489 0.2132 -0.9656
vn 0.2418 -0.2377 0.9408
vn 0.9005 -0.1657 -0.4021
vn -0.5046 0.8106 -0.2972
vn 0.5665 0.3689 0.7369
vn -0.6807 0.2899 -0.6727
s 0
usemtl _16834_hand_v1default.008
f 15//1 12//1 14//1
f 15//2 14//2 18//2
f 13//3 19//3 15//3
f 13//4 15//4 18//4
f 9//5 20//5 14//5
f 13//6 10//6 19//6
f 18//7 20//7 17//7
f 18//8 17//8 16//8
f 11//8 18//8 16//8
f 20//9 18//9 14//9
s 1
f 3//10 5//11 2//12
f 5//11 15//13 19//14 2//12
f 6//15 4//16 18//17 11//18
f 4//16 13//19 18//17
f 3//10 7//20 8//21 17//22 20//23
f 3//10 2//12 1//24
f 3//10 14//25 12//26 5//11
f 7//20 16//27 17//22 8//21
f 12//26 15//13 5//11
f 9//28 14//25 3//10
f 20//23 9//28 3//10
f 11//18 16//27 7//20 6//15
f 19//14 22//29 2//12
f 21//30 7//20 3//10
f 13//19 4//16 22//29
f 4//16 6//15 7//20 21//30 1//24 2//12 22//29
s 0
f 22//31 19//31 13//31
s 1
f 21//30 3//10 1//24
