# Blender 4.0.1
# www.blender.org
mtllib indexTop.mtl
o 16834_hand_v1_NEW.001
v 0.439809 2.223425 0.066272
v 0.780672 0.124774 -0.501415
v -0.052610 0.345679 -0.779844
v 0.924675 1.793543 0.665353
v -0.175172 2.357710 0.697359
v -0.025710 1.498808 1.491974
v -0.471231 2.228752 0.173404
v -0.923696 0.209649 0.116261
v -0.214613 -0.085579 0.807017
v 0.632796 -0.216620 0.628705
v 0.877285 -0.086461 -0.051187
v -0.788689 0.319418 -0.438913
vn 0.4199 0.7639 -0.4900
vn 0.1268 -0.3780 -0.9171
vn -0.0305 -0.0035 -0.9995
vn 0.8399 0.4453 0.3102
vn -0.3076 0.8539 0.4198
vn 0.5357 -0.4386 -0.7216
vn -0.1551 0.1946 0.9685
vn -0.6985 0.6134 -0.3686
vn -0.6903 -0.3613 -0.6268
vn -0.9750 -0.0506 0.2163
vn 0.7054 -0.4804 0.5213
vn -0.3444 -0.7864 0.5128
s 1
usemtl _16834_hand_v1default.008
f 1//1 2//2 3//3
f 4//4 1//1 5//5
f 4//4 11//6 2//2
f 4//4 5//5 6//7
f 7//8 3//3 12//9
f 7//8 8//10 5//5
f 5//5 8//10 6//7
f 4//4 6//7 10//11
f 2//2 1//1 4//4
f 3//3 7//8 1//1
f 5//5 1//1 7//8
f 8//10 9//12 6//7
f 9//12 10//11 6//7
f 10//11 11//6 4//4
f 8//10 7//8 12//9
f 8//10 12//9 3//3 2//2 11//6 10//11 9//12
