# Blender 4.0.1
# www.blender.org
mtllib indexDown.mtl
o 16834_hand_v1_NEW.004
v -1.334976 -1.497562 -0.376604
v -0.861359 1.029283 -0.484328
v 0.119372 0.795742 0.938096
v 1.013616 0.597191 0.526912
v 0.318142 0.828044 -0.957375
v -0.183361 -1.486781 -1.469398
v -1.184447 -1.740218 0.290022
v -0.553886 -1.936752 0.672736
v 0.607596 -1.711840 -0.624643
v 0.463023 -2.087657 0.372236
v 1.132891 1.117574 -0.141020
v -0.841959 1.147583 -0.449212
v 0.119985 0.959855 0.974609
v 0.388206 1.180149 -0.868982
v -0.849673 1.145805 -0.431882
v 0.976737 1.132047 -0.306243
v -0.565221 1.149796 -0.548784
v 0.184579 0.961270 0.963549
v 1.005696 1.001514 0.654047
v 0.080218 0.965636 0.930959
v -0.818916 1.148194 -0.461976
v 1.128932 1.086009 0.011722
vn -0.0023 0.9962 0.0874
vn 0.0321 0.9932 0.1116
vn 0.0320 0.9932 0.1116
vn -0.0086 0.9918 0.1272
vn 0.0083 0.9902 0.1392
vn 0.0314 0.9934 0.1100
vn 0.0007 0.9914 0.1308
vn 0.0007 0.9914 0.1307
vn -0.1158 0.9737 0.1962
vn -0.9036 0.2465 -0.3503
vn -0.9837 0.0078 0.1797
vn -0.7063 0.3054 -0.6386
vn -0.2393 -0.1381 0.9611
vn 0.2816 -0.2516 0.9259
vn -0.3182 -0.2066 0.9252
vn 0.2339 0.1687 -0.9575
vn -0.0371 -0.4280 -0.9030
vn -0.8612 -0.4156 -0.2926
vn -0.7446 -0.5703 0.3468
vn 0.8166 -0.2044 0.5398
vn -0.2210 -0.7150 0.6633
vn 0.6502 -0.6417 -0.4067
vn 0.4751 -0.7877 0.3923
vn -0.3135 0.2884 -0.9047
vn 0.2904 0.1790 -0.9400
vn 0.7081 -0.0060 -0.7061
vn 0.9301 -0.1149 -0.3489
vn 0.9854 -0.1599 0.0586
vn -0.7917 -0.1624 0.5889
vn 0.7335 -0.1891 0.6528
vn -0.3736 0.3024 -0.8769
s 0
usemtl _16834_hand_v1default.003
f 17//1 16//1 14//1
f 21//2 15//2 17//2
f 12//3 15//3 21//3
f 16//4 17//4 20//4
f 20//5 22//5 16//5
f 17//6 15//6 20//6
f 20//7 19//7 22//7
f 20//8 18//8 19//8
f 13//8 18//8 20//8
f 22//9 11//9 16//9
s 1
f 2//10 15//11 12//12
f 3//13 18//14 13//15
f 2//10 5//16 6//17
f 2//10 1//18 7//19
f 4//20 3//13 8//21
f 6//17 1//18 2//10
f 9//22 4//20 10//23
f 10//23 4//20 8//21
f 2//10 17//24 14//25 5//16
f 5//16 16//26 11//27 9//22
f 6//17 5//16 9//22
f 9//22 11//27 22//28 4//20
f 2//10 7//19 3//13
f 8//21 3//13 7//19
f 13//15 20//29 3//13
f 22//28 19//30 4//20
f 12//12 21//31 2//10
f 14//25 16//26 5//16
f 21//31 17//24 2//10
f 19//30 18//14 3//13 4//20
f 20//29 15//11 2//10 3//13
f 10//23 8//21 7//19 1//18 6//17 9//22
