# Blender 4.0.1
# www.blender.org
mtllib wrist.mtl
o 16834_hand_v1_NEW
v 0.216017 -2.093390 2.478474
v -1.751909 -4.853529 1.813863
v -0.046427 -4.978791 3.159683
v 1.301328 4.158632 -1.057209
v 1.065158 4.146511 -0.061839
v -0.845087 4.401738 -0.667061
v -0.165831 4.270367 0.152748
v 1.388024 4.078438 0.141396
v -1.199622 4.637838 -2.294026
v -2.310596 4.791427 -2.531641
v -2.988112 4.377631 -1.670646
v -2.923915 4.260037 -0.852452
v -0.898902 4.429491 -1.412846
v -1.986462 4.399008 -0.460964
v -3.633658 3.700987 -1.955596
v -4.857746 3.815341 -2.396653
v -4.178082 3.894742 -0.395318
v -3.613743 2.848177 -2.700327
v -5.173235 2.278632 -2.400516
v -5.268538 3.567738 -0.924536
v -2.824271 3.509071 -0.257100
v 2.539639 4.089219 -0.951398
v 1.538553 3.835782 0.808022
v 2.169114 3.639248 1.190736
v 3.330596 3.864160 -0.106643
v 3.186023 3.488343 0.890236
v 0.051219 4.408458 -2.263993
v -1.702843 -0.490139 -3.006139
v -1.525335 3.399936 -3.018558
v 0.999708 4.412340 -2.123892
v 2.468778 2.312198 -1.442453
v 3.257646 1.138458 -0.344278
v 2.411393 -1.733240 -1.474645
v 3.976021 -0.919069 1.278035
v 4.843448 -1.668105 1.910069
v 4.982346 -2.173419 3.138669
v 3.607405 -4.016451 3.240556
v 3.134151 -5.588833 1.666880
v 3.678715 -1.514442 3.499230
v 3.272586 -0.683241 2.690932
v 2.636892 0.169105 1.400191
v 1.711094 0.212200 1.568431
v -2.078043 -4.513668 -2.658724
v 0.244482 -0.893875 -2.706218
v -0.852602 -7.790960 -2.656099
v -5.074463 -2.804630 1.038453
v -5.897371 -1.993351 -0.797409
v -4.464054 -6.196271 0.086527
v 1.374428 -5.918170 2.957912
v -0.139297 -6.374041 2.082269
v -0.894773 -2.147515 0.443098
v -4.548624 0.293123 0.274600
v -3.424685 -5.151083 1.531061
v 2.012797 -6.312564 0.923653
v 2.036485 -5.190430 -0.662448
v 1.499001 -7.916311 -0.921746
v -3.251233 -7.746195 -3.222106
v -4.265287 -4.802546 -1.776738
v 0.733332 -8.089580 1.875808
v -4.843246 -7.976048 -0.353883
vn -0.5645 0.4486 0.6929
vn -0.3456 0.0727 0.9356
vn -0.3879 -0.1651 0.9068
vn 0.1320 0.9872 0.0897
vn -0.1416 0.7389 0.6588
vn 0.1358 0.9685 0.2087
vn -0.4242 0.6833 -0.5942
vn -0.3493 0.8512 -0.3918
vn -0.1858 0.1951 -0.9630
vn -0.7081 0.0549 -0.7040
vn -0.0917 0.3327 0.9386
vn -0.2585 0.8894 0.3771
vn -0.2463 0.7403 0.6255
vn 0.4091 0.7474 -0.5234
vn 0.3245 0.9355 -0.1400
vn -0.1886 0.8384 -0.5113
vn -0.4923 0.8681 0.0637
vn -0.0080 0.6810 0.7322
vn -0.0461 0.9699 0.2390
vn 0.0532 0.9905 0.1268
vn 0.2199 0.7542 -0.6188
vn 0.1228 0.9105 -0.3950
vn -0.0079 -0.0273 -0.9996
vn 0.1303 0.1548 -0.9793
vn 0.4242 0.7127 -0.5586
vn 0.6538 0.0917 -0.7511
vn 0.9739 0.0288 -0.2252
vn 0.7882 0.6107 -0.0757
vn 0.6787 -0.0892 -0.7290
vn 0.6866 0.4486 0.5722
vn 0.7330 -0.6801 0.0112
vn 0.7357 -0.3345 0.5890
vn 0.4924 -0.4333 0.7548
vn 0.2064 0.3062 0.9293
vn 0.2582 0.8010 0.5401
vn 0.4932 0.5716 0.6557
vn -0.2817 0.4116 0.8667
vn -0.1692 0.0222 -0.9853
vn 0.3083 -0.0134 -0.9512
vn 0.7075 0.6805 0.1905
vn 0.2763 -0.6481 -0.7096
vn -0.5859 0.0156 0.8102
vn -0.9705 -0.1026 -0.2181
vn -0.9449 -0.0402 0.3248
vn 0.9167 0.3732 -0.1429
vn 0.1305 -0.6847 0.7171
vn -0.2432 -0.4810 0.8423
vn -0.3300 0.4084 0.8510
vn -0.1316 0.2395 0.9619
vn -0.0079 0.5786 0.8156
vn -0.1556 0.6797 0.7168
vn -0.3885 -0.1281 0.9125
vn 0.7692 -0.6292 0.1118
vn 0.8037 -0.2605 -0.5350
vn 0.6486 -0.6661 -0.3683
vn -0.3081 -0.5179 -0.7980
vn -0.7449 -0.0906 -0.6610
vn 0.3095 -0.6679 0.6768
vn -0.7733 -0.6111 0.1691
vn -0.7393 0.5982 0.3092
s 1
usemtl _16834_hand_v1default.003
f 1//1 2//2 3//3
f 5//4 7//5 8//6
f 16//7 15//8 18//9
f 19//10 16//7 18//9
f 21//11 12//12 17//13
f 22//14 4//15 8//6
f 10//16 15//8 11//17
f 14//18 6//19 13//20
f 6//19 14//18 21//11
f 13//20 27//21 9//22
f 27//21 28//23 29//24
f 30//25 4//15 31//26
f 32//27 31//26 25//28
f 31//26 32//27 33//29
f 25//28 26//30 32//27
f 38//31 36//32 37//33
f 37//33 36//32 39//34
f 40//35 41//36 42//37
f 28//23 18//9 29//24
f 19//10 18//9 28//23
f 28//23 43//38 19//10
f 44//39 43//38 28//23
f 34//40 33//29 32//27
f 44//39 45//41 43//38
f 46//42 47//43 48//44
f 36//32 38//31 35//45
f 37//33 3//3 49//46
f 50//47 49//46 3//3
f 51//48 52//49 2//2
f 42//37 26//30 24//50
f 23//51 51//48 24//50
f 7//5 51//48 23//51
f 51//48 42//37 24//50
f 51//48 21//11 52//49
f 2//2 52//49 53//52
f 54//53 49//46 50//47
f 45//41 55//54 56//55
f 43//38 57//56 58//57
f 53//52 59//58 2//2
f 39//34 1//1 3//3
f 7//5 6//19 21//11
f 59//58 53//52 60//59
f 60//59 56//55 59//58
f 60//59 45//41 56//55
f 19//10 20//60 16//7
f 15//8 10//16 18//9
f 17//13 12//12 15//8
f 15//8 12//12 11//17
f 47//43 19//10 43//38 58//57
f 9//22 29//24 10//16
f 9//22 27//21 29//24
f 12//12 21//11 14//18
f 18//9 10//16 29//24
f 44//39 27//21 30//25
f 30//25 31//26 44//39
f 8//6 4//15 5//4
f 23//51 8//6 7//5
f 25//28 31//26 22//14
f 4//15 22//14 31//26
f 32//27 26//30 41//36
f 28//23 27//21 44//39
f 33//29 44//39 31//26
f 42//37 41//36 26//30
f 41//36 34//40 32//27
f 34//40 35//45 33//29
f 55//54 45//41 33//29 35//45
f 44//39 33//29 45//41
f 38//31 55//54 35//45
f 37//33 49//46 38//31
f 2//2 50//47 3//3
f 1//1 51//48 2//2
f 40//35 42//37 39//34
f 21//11 17//13 52//49
f 20//60 46//42 52//49
f 17//13 20//60 52//49
f 47//43 46//42 20//60
f 19//10 47//43 20//60
f 53//52 52//49 46//42
f 49//46 54//53 38//31
f 53//52 46//42 48//44
f 47//43 58//57 48//44
f 55//54 38//31 54//53
f 58//57 57//56 60//59
f 60//59 48//44 58//57
f 60//59 53//52 48//44
f 59//58 50//47 2//2
f 59//58 54//53 50//47
f 54//53 56//55 55//54
f 43//38 45//41 57//56
f 41//36 40//35 34//40
f 51//48 1//1 42//37
f 37//33 39//34 3//3
f 39//34 42//37 1//1
f 21//11 51//48 7//5
f 34//40 40//35 39//34 36//32 35//45
f 56//55 54//53 59//58
f 57//56 45//41 60//59
f 20//60 17//13 15//8 16//7
f 9//22 10//16 11//17 12//12 14//18 13//20
f 7//5 5//4 4//15 30//25 27//21 13//20 6//19
f 26//30 25//28 22//14 8//6 23//51 24//50
